# xmcd CD database file
#
# Track frame offsets:
#	150
#	13020
#	26452
#	38287
#	49020
#	60570
#	72700
#	85842
#	99732
#	113792
#	127087
#	139252
#	152187
#	165852
#	178145
#	190145
#
# Disc length: 2682 seconds
#
# Revision: 1
# Processed by: cddbd v1.5.2PL0 Copyright (c) Steve Scherf et al.
# Submitted via: CDex 1.70beta2
#
DISCID=d40a7810
DTITLE=Celia Cruz - El Merengue
DYEAR=1996
DGENRE=Salsa
TTITLE0=Munecas del cha cha cha
TTITLE1=El Merengue
TTITLE2=Y mi negro esta cansao
TTITLE3=Oya diosa y fe
TTITLE4=Contestacion de el marinero
TTITLE5=Mi soncito
TTITLE6=Yerbero moderno
TTITLE7=Pa' la paloma
TTITLE8=Goza negro
TTITLE9=Oyela Gozala
TTITLE10=Sandungueate
TTITLE11=Plegaria a laroye
TTITLE12=Nuevo ritmo omelenko
TTITLE13=Juancito Trucupey
TTITLE14=Burndanga
TTITLE15=Rock and roll
EXTD=YEAR: 1996
EXTT0=
EXTT1=
EXTT2=
EXTT3=
EXTT4=
EXTT5=
EXTT6=
EXTT7=
EXTT8=
EXTT9=
EXTT10=
EXTT11=
EXTT12=
EXTT13=
EXTT14=
EXTT15=
PLAYORDER=
